<?xml version="1.0" encoding="utf-8"?>
<!-- Generator: Adobe Illustrator 25.0.1, SVG Export Plug-In . SVG Version: 6.00 Build 0)  -->
<svg version="1.1" id="Layer_1" xmlns="http://www.w3.org/2000/svg" xmlns:xlink="http://www.w3.org/1999/xlink" x="0px" y="0px"
	 viewBox="0 0 1920 163" style="enable-background:new 0 0 1920 163;" xml:space="preserve">
<style type="text/css">
	.st0{fill:#FFFFFF;}
	.st1{fill:#084CA1;}
	.st2{fill:#404041;}
	.st3{fill:url(#SVGID_1_);}
	.st4{fill:url(#SVGID_2_);}
	.st5{fill:url(#SVGID_3_);}
	.st6{fill:none;stroke:#084CA1;stroke-width:0.4595;stroke-linecap:round;stroke-miterlimit:10;}
	.st7{fill:#192A47;}
	.st8{fill:#238DC1;}
	.st9{fill:#013556;}
	.st10{fill:#1687C0;}
	.st11{fill:none;stroke:#084CA1;stroke-width:1.2607;stroke-linecap:round;stroke-miterlimit:10;}
</style>
<rect class="st0" width="1920" height="146"/>
<g>
	<g>
		<g>
			<g>
				<path class="st1" d="M724.2,106.5c0-1,0.1-1.8,0.2-2.6s0.4-1.3,0.7-1.8c0.3-0.5,0.6-0.9,1-1.2c0.4-0.3,0.8-0.5,1.3-0.7
					s1.1-0.3,1.5-0.3s1.1-0.1,1.8-0.1c0.6,0,1.4,0.1,2.3,0.2c0.9,0.1,1.6,0.3,2,0.4v3.1c-1.5-0.4-2.9-0.6-4-0.6
					c-1.3,0-2.2,0.3-2.7,0.9c-0.5,0.6-0.8,1.5-0.8,2.7c0,1.2,0.3,2,0.8,2.6s1.5,0.9,2.8,0.9c1.5,0,2.9-0.3,4-0.8v3.2
					c-0.5,0.2-1.2,0.4-2,0.5c-0.9,0.1-1.6,0.2-2.3,0.2c-0.9,0-1.6,0-2.2-0.1c-0.6-0.1-1.2-0.3-1.8-0.5s-1.1-0.6-1.5-1.1
					c-0.4-0.5-0.7-1.1-0.9-1.9C724.4,108.6,724.2,107.6,724.2,106.5z"/>
				<path class="st1" d="M735.8,106.5c0-2.4,0.5-4.1,1.5-5.1c1-1,2.7-1.5,4.9-1.5s3.9,0.5,4.9,1.5c1,1,1.5,2.7,1.5,5.1
					c0,2.4-0.5,4.2-1.5,5.2c-1,1-2.7,1.5-4.9,1.5s-3.9-0.5-4.9-1.5C736.3,110.6,735.8,108.9,735.8,106.5z M739.9,109.3
					c0.5,0.5,1.3,0.7,2.4,0.7c1.1,0,2-0.2,2.4-0.7c0.5-0.5,0.7-1.4,0.7-2.8c0-1.4-0.2-2.3-0.7-2.8c-0.5-0.5-1.3-0.7-2.4-0.7
					c-1.2,0-2,0.2-2.4,0.7s-0.7,1.4-0.7,2.8C739.1,107.9,739.4,108.8,739.9,109.3z"/>
				<path class="st1" d="M748.3,100.1h3.4l3.3,9.8h0.4l3.3-9.8h3.4l-4.3,12.9h-5L748.3,100.1z"/>
				<path class="st1" d="M762.7,100.1h3.4V113h-3.4V100.1z"/>
				<path class="st1" d="M768.1,100.1h5.2c0.6,0,1.2,0,1.6,0.1c0.5,0,0.9,0.1,1.4,0.2c0.5,0.1,0.9,0.3,1.3,0.4
					c0.4,0.2,0.7,0.4,1,0.8c0.3,0.3,0.6,0.7,0.8,1.2c0.2,0.4,0.4,1,0.5,1.6s0.2,1.4,0.2,2.2c0,1.1-0.1,2.1-0.4,2.9
					c-0.2,0.8-0.6,1.4-0.9,1.9c-0.4,0.5-0.9,0.8-1.5,1.1c-0.6,0.3-1.2,0.4-1.8,0.5c-0.6,0.1-1.3,0.1-2.2,0.1h-5.2V100.1z
					 M771.5,109.8h1.9c0.5,0,0.9,0,1.2,0c0.3,0,0.6-0.1,0.9-0.1s0.5-0.2,0.7-0.3c0.1-0.1,0.3-0.3,0.4-0.6c0.1-0.2,0.2-0.6,0.3-0.9
					c0-0.4,0.1-0.8,0.1-1.3c0-0.5,0-1-0.1-1.4c0-0.4-0.1-0.7-0.3-0.9c-0.1-0.2-0.3-0.4-0.4-0.6c-0.1-0.1-0.4-0.2-0.7-0.3
					c-0.3-0.1-0.6-0.1-0.9-0.1c-0.3,0-0.7,0-1.2,0h-1.9V109.8z"/>
				<path class="st1" d="M787.1,109.1h-6v-2.6h6V109.1z"/>
				<path class="st1" d="M789.4,113v-10.3h-1.8v-2.6h5.2V113H789.4z"/>
				<path class="st1" d="M794.3,102.1c0.1-0.5,0.4-0.9,0.8-1.2c0.4-0.4,0.9-0.6,1.7-0.8c0.7-0.2,1.7-0.2,2.8-0.2
					c0.7,0,1.3,0,1.7,0.1c0.5,0.1,0.9,0.2,1.3,0.3c0.4,0.1,0.7,0.3,0.9,0.6c0.2,0.3,0.4,0.6,0.6,0.9c0.2,0.3,0.3,0.7,0.4,1.2
					c0.1,0.5,0.1,1,0.2,1.5c0,0.5,0,1.2,0,1.9c0,1.9-0.1,3.2-0.3,3.9c-0.3,1.1-0.9,1.9-1.9,2.3c-0.8,0.3-1.9,0.5-3.3,0.5
					c-1.5,0-3-0.2-4.5-0.6v-2.7c1.6,0.4,3.1,0.7,4.5,0.7c0.3,0,0.6,0,0.8,0c0.2,0,0.4,0,0.5-0.1c0.2-0.1,0.3-0.1,0.4-0.2
					c0.1-0.1,0.1-0.2,0.2-0.5c0.1-0.2,0.1-0.4,0.1-0.7s0-0.6,0-1c-0.6,0.1-1.3,0.2-1.9,0.2c-0.7,0-1.3,0-1.9-0.1
					c-0.5-0.1-1-0.1-1.4-0.2c-0.4-0.1-0.7-0.2-1-0.4c-0.3-0.2-0.5-0.4-0.6-0.6c-0.1-0.2-0.3-0.4-0.3-0.8c-0.1-0.3-0.1-0.6-0.1-0.9
					c0-0.3,0-0.7,0-1.1C794.1,103.2,794.2,102.6,794.3,102.1z M797.8,105.3c0.2,0.2,0.8,0.3,1.6,0.3c0.7,0,1.3-0.1,2-0.2
					c0-0.7,0-1.2-0.1-1.5c0-0.3-0.1-0.6-0.3-0.8s-0.3-0.4-0.5-0.4c-0.2,0-0.5-0.1-1-0.1c-0.9,0-1.5,0.1-1.8,0.3
					c-0.2,0.2-0.4,0.6-0.4,1.2C797.5,104.7,797.6,105.1,797.8,105.3z"/>
			</g>
			<g>
				<path class="st2" d="M754.2,55.8l-13.4,37.5h-2l-13.3-37.5h2l12.4,34.9l12.4-34.9H754.2z"/>
				<path class="st2" d="M762.7,66.1c3.1,0,5.7,1,7.6,3.1c1.9,2.1,2.9,4.8,2.9,8.2v15.9h-1.8v-5.1c-1.1,1.7-2.7,3.1-4.6,4.1
					c-1.9,1-3.9,1.6-5.9,1.6c-3,0-5.4-0.7-7.2-2.2c-1.8-1.5-2.7-3.4-2.7-5.8c0-2.4,0.9-4.3,2.8-5.8c1.8-1.4,4.3-2.2,7.3-2.2
					c3.6,0,7,0.6,10.4,1.8v-2.4c0-2.8-0.8-5.1-2.4-6.8c-1.6-1.7-3.7-2.6-6.3-2.6c-3.5,0-6.5,0.9-9,2.8l-0.7-1.6
					c1.1-0.9,2.6-1.6,4.4-2.2C759.2,66.4,761,66.1,762.7,66.1z M761.2,79.6c-2.6,0-4.6,0.6-6.1,1.7c-1.5,1.1-2.3,2.6-2.3,4.5
					c0,1.9,0.8,3.5,2.3,4.6c1.5,1.2,3.6,1.7,6.1,1.7c1.9,0,3.8-0.6,5.7-1.7c1.9-1.1,3.4-2.6,4.5-4.5v-4.8
					C768.4,80.1,765,79.6,761.2,79.6z"/>
				<path class="st2" d="M790.1,66.1c3.4,0,6.5,1,9.3,2.9l-0.9,1.4c-2.4-1.8-5.1-2.7-8.1-2.7c-3.8,0-6.8,1.2-9.1,3.5
					c-2.2,2.3-3.4,5.2-3.5,8.8c0.1,3.5,1.2,6.4,3.5,8.7c2.2,2.3,5.3,3.5,9.1,3.5c3,0,5.7-0.9,8.1-2.7l0.9,1.4
					c-2.8,2-5.9,2.9-9.3,2.9c-4.2,0-7.5-1.3-10.1-3.9c-2.6-2.6-3.9-5.9-4-9.9c0-4,1.3-7.3,3.9-9.9C782.5,67.5,785.8,66.1,790.1,66.1
					z"/>
				<path class="st2" d="M824,66.7v26.6h-1.8v-6.3c-0.9,2.4-2.3,4.1-4.1,5.2c-1.9,1.1-3.7,1.7-5.5,1.7c-1.4,0-2.7-0.2-4-0.6
					c-1.2-0.4-2.4-1-3.4-1.8c-1.1-0.8-1.9-2.1-2.5-3.7c-0.6-1.6-0.9-3.5-0.9-5.7V66.7h1.8v15.4c0,3.6,0.9,6.2,2.6,7.8
					c1.8,1.6,3.9,2.3,6.5,2.3c0.9,0,1.8-0.2,2.8-0.6c1-0.4,2-1,3.1-1.8c1-0.8,1.9-2,2.6-3.6c0.7-1.6,1.1-3.4,1.1-5.5v-14H824z"/>
				<path class="st2" d="M840.6,66.1c3.1,0,5.6,0.9,7.7,2.8c2.1,1.9,3.1,4.9,3.1,9v15.3h-1.8V77.9c0-3.6-0.9-6.2-2.6-7.7
					c-1.7-1.6-3.9-2.4-6.5-2.4c-2.2,0-4.4,0.9-6.4,2.8c-2,1.9-3.1,4.8-3.2,8.6v14h-1.8V66.7h1.8V73c0.6-1.6,1.5-2.9,2.6-4
					c1.2-1.1,2.3-1.8,3.5-2.3C838.3,66.3,839.5,66.1,840.6,66.1z"/>
				<path class="st2" d="M865.6,66.1c3.1,0,5.7,1,7.6,3.1c1.9,2.1,2.9,4.8,2.9,8.2v15.9h-1.8v-5.1c-1.1,1.7-2.7,3.1-4.6,4.1
					c-1.9,1-3.9,1.6-5.9,1.6c-3,0-5.4-0.7-7.2-2.2c-1.8-1.5-2.7-3.4-2.7-5.8c0-2.4,0.9-4.3,2.8-5.8c1.8-1.4,4.3-2.2,7.3-2.2
					c3.6,0,7,0.6,10.4,1.8v-2.4c0-2.8-0.8-5.1-2.4-6.8c-1.6-1.7-3.7-2.6-6.3-2.6c-3.5,0-6.5,0.9-9,2.8l-0.7-1.6
					c1.1-0.9,2.6-1.6,4.4-2.2C862,66.4,863.8,66.1,865.6,66.1z M864.1,79.6c-2.6,0-4.6,0.6-6.1,1.7c-1.5,1.1-2.3,2.6-2.3,4.5
					c0,1.9,0.8,3.5,2.3,4.6c1.5,1.2,3.6,1.7,6.1,1.7c1.9,0,3.8-0.6,5.7-1.7c1.9-1.1,3.4-2.6,4.5-4.5v-4.8
					C871.2,80.1,867.8,79.6,864.1,79.6z"/>
			</g>
			<g>
				<path class="st0" d="M713,57.6v-0.2c0-6.5-5-11.8-11.4-12.3c0,0,0,0-0.1,0C708,45.7,713,51,713,57.6z"/>
				<path class="st0" d="M703.6,59.4c-0.1-0.2-0.4-0.2-0.5,0l-2,3.9c-0.5,1-0.3,2.2,0.5,3c1,1,2.7,1,3.7,0c0.8-0.8,1-2,0.5-3
					L703.6,59.4z"/>
				<path class="st0" d="M701.6,45.1c-0.3,0-0.7,0-1,0h-0.2C700.8,45,701.2,45,701.6,45.1C701.6,45.1,701.6,45.1,701.6,45.1z"/>
				<path class="st0" d="M700.4,118h0.2c6.8,0,12.4-5.5,12.4-12.4v-0.2C713,112.4,707.4,118,700.4,118z"/>
				<path class="st0" d="M652.4,118h17.8l0.4-0.5l-8.3-6.5c-0.4-0.3-0.5-1-0.2-1.4c0.3-0.4,1-0.5,1.4-0.2l8.3,6.5l4.5-5.6l-4.3-3.4
					c-0.4-0.3-0.5-1-0.2-1.4c0.3-0.4,1-0.5,1.4-0.2l4.3,3.4l4.7-6c0.8-1.1,0.7-2.6-0.4-3.4l-4.4-3.5l2.6-3.2
					c0.5-0.6,0.4-1.6-0.2-2.1l-0.8-0.6l2.9-5l-1.7-1.3L702.8,55l1.7-5.9l-26.3,33.2l-1.6-1.3l-4.2,3.9l-0.8-0.6
					c-0.6-0.5-1.6-0.4-2.1,0.2l-2.6,3.2l-4.4-3.5c-1.1-0.8-2.6-0.7-3.4,0.4l-17,21.5c-0.2,0.3-0.6,0.4-0.9,0.5
					c-0.2,1.2-0.3,2.4-0.5,3.6C642.7,114.8,647.2,118,652.4,118z"/>
				<path class="st0" d="M640,105.4v0.2c0,1.6,0.3,3.2,0.9,4.6c0.1-1.2,0.3-2.4,0.5-3.6C640.7,106.7,640,106.2,640,105.4z"/>
				<path class="st0" d="M652.6,45h-0.2c-6.8,0-12.4,5.5-12.4,12.4v0.2C640,50.6,645.6,45,652.6,45z"/>
				<path class="st0" d="M641.4,106.7c4.8-31.6,29.2-56.6,60.2-61.6c-0.4,0-0.8-0.1-1.2-0.1h-47.8c-7,0-12.6,5.6-12.6,12.6v47.8v0
					C640,106.2,640.7,106.7,641.4,106.7z"/>
				<linearGradient id="SVGID_1_" gradientUnits="userSpaceOnUse" x1="640" y1="75.8333" x2="712.9933" y2="75.8333">
					<stop  offset="0" style="stop-color:#00ADEE"/>
					<stop  offset="6.961393e-02" style="stop-color:#06A1E3"/>
					<stop  offset="0.2242" style="stop-color:#0F8ED1"/>
					<stop  offset="0.4017" style="stop-color:#1680C5"/>
					<stop  offset="0.6202" style="stop-color:#1A77BD"/>
					<stop  offset="1" style="stop-color:#1B75BB"/>
				</linearGradient>
				<path class="st3" d="M641.4,106.7c4.8-31.6,29.2-56.6,60.2-61.6c-0.4,0-0.8-0.1-1.2-0.1h-47.8c-7,0-12.6,5.6-12.6,12.6v47.8v0
					C640,106.2,640.7,106.7,641.4,106.7z"/>
				<path class="st0" d="M701.6,45.1c-31,5-55.4,30-60.2,61.6c0.3,0,0.7-0.2,0.9-0.5l17-21.5c0.8-1.1,2.4-1.2,3.4-0.4l4.4,3.5
					l2.6-3.2c0.5-0.6,1.4-0.7,2.1-0.2l0.8,0.6l4.2-3.9l1.6,1.3L704.6,49l-1.7,5.9l-22.7,28.7l1.7,1.3l-2.9,5l0.8,0.6
					c0.6,0.5,0.7,1.4,0.2,2.1l-2.6,3.2l4.4,3.5c1.1,0.8,1.2,2.4,0.4,3.4l-4.7,6l-4.3-3.4c-0.4-0.3-1-0.3-1.4,0.2
					c-0.3,0.4-0.3,1,0.2,1.4l4.3,3.4l-4.5,5.6l-8.3-6.5c-0.4-0.3-1-0.3-1.4,0.2c-0.3,0.4-0.3,1,0.2,1.4l8.3,6.5l-0.4,0.5h30.2
					c7,0,12.6-5.6,12.6-12.6V57.6C713,51,708,45.7,701.6,45.1z M705.1,66.3c-1,1-2.7,1-3.7,0c-0.8-0.8-1-2-0.5-3l2-3.9
					c0.1-0.2,0.4-0.2,0.5,0l2,3.9C706.1,64.3,705.9,65.5,705.1,66.3z"/>
				<linearGradient id="SVGID_2_" gradientUnits="userSpaceOnUse" x1="640.0001" y1="81.5317" x2="712.9933" y2="81.5317">
					<stop  offset="0" style="stop-color:#00ADEE"/>
					<stop  offset="6.961393e-02" style="stop-color:#06A1E3"/>
					<stop  offset="0.2242" style="stop-color:#0F8ED1"/>
					<stop  offset="0.4017" style="stop-color:#1680C5"/>
					<stop  offset="0.6202" style="stop-color:#1A77BD"/>
					<stop  offset="1" style="stop-color:#1B75BB"/>
				</linearGradient>
				<path class="st4" d="M701.6,45.1c-31,5-55.4,30-60.2,61.6c0.3,0,0.7-0.2,0.9-0.5l17-21.5c0.8-1.1,2.4-1.2,3.4-0.4l4.4,3.5
					l2.6-3.2c0.5-0.6,1.4-0.7,2.1-0.2l0.8,0.6l4.2-3.9l1.6,1.3L704.6,49l-1.7,5.9l-22.7,28.7l1.7,1.3l-2.9,5l0.8,0.6
					c0.6,0.5,0.7,1.4,0.2,2.1l-2.6,3.2l4.4,3.5c1.1,0.8,1.2,2.4,0.4,3.4l-4.7,6l-4.3-3.4c-0.4-0.3-1-0.3-1.4,0.2
					c-0.3,0.4-0.3,1,0.2,1.4l4.3,3.4l-4.5,5.6l-8.3-6.5c-0.4-0.3-1-0.3-1.4,0.2c-0.3,0.4-0.3,1,0.2,1.4l8.3,6.5l-0.4,0.5h30.2
					c7,0,12.6-5.6,12.6-12.6V57.6C713,51,708,45.7,701.6,45.1z M705.1,66.3c-1,1-2.7,1-3.7,0c-0.8-0.8-1-2-0.5-3l2-3.9
					c0.1-0.2,0.4-0.2,0.5,0l2,3.9C706.1,64.3,705.9,65.5,705.1,66.3z"/>
				<linearGradient id="SVGID_3_" gradientUnits="userSpaceOnUse" x1="701.4675" y1="109.1365" x2="648.7925" y2="45.6277">
					<stop  offset="0" style="stop-color:#25A9E0"/>
					<stop  offset="0.1205" style="stop-color:#1F96D3"/>
					<stop  offset="0.3612" style="stop-color:#1676BD"/>
					<stop  offset="0.5934" style="stop-color:#0F5FAD"/>
					<stop  offset="0.8112" style="stop-color:#0A51A3"/>
					<stop  offset="1" style="stop-color:#094CA0"/>
				</linearGradient>
				<path class="st5" d="M701.6,45.1c-31,5-55.4,30-60.2,61.6c0.3,0,0.7-0.2,0.9-0.5l17-21.5c0.8-1.1,2.4-1.2,3.4-0.4l4.4,3.5
					l2.6-3.2c0.5-0.6,1.4-0.7,2.1-0.2l0.8,0.6l4.2-3.9l1.6,1.3L704.6,49l-1.7,5.9l-22.7,28.7l1.7,1.3l-2.9,5l0.8,0.6
					c0.6,0.5,0.7,1.4,0.2,2.1l-2.6,3.2l4.4,3.5c1.1,0.8,1.2,2.4,0.4,3.4l-4.7,6l-4.3-3.4c-0.4-0.3-1-0.3-1.4,0.2
					c-0.3,0.4-0.3,1,0.2,1.4l4.3,3.4l-4.5,5.6l-8.3-6.5c-0.4-0.3-1-0.3-1.4,0.2c-0.3,0.4-0.3,1,0.2,1.4l8.3,6.5l-0.4,0.5h30.2
					c7,0,12.6-5.6,12.6-12.6V57.6C713,51,708,45.7,701.6,45.1z M705.1,66.3c-1,1-2.7,1-3.7,0c-0.8-0.8-1-2-0.5-3l2-3.9
					c0.1-0.2,0.4-0.2,0.5,0l2,3.9C706.1,64.3,705.9,65.5,705.1,66.3z"/>
			</g>
			<line class="st6" x1="810.8" y1="102.1" x2="875.4" y2="102.1"/>
		</g>
	</g>
	<g>
		<rect x="1176.1" y="57.7" class="st7" width="0.6" height="51.3"/>
		<g>
			<path class="st7" d="M1191.9,66.9l0-5.3l-2.6,4.4l-0.7,0l-2.6-4.3l0,5.2l-1.4,0l0-7.9l1.2,0l3.2,5.3l3.1-5.3l1.2,0l0,7.9
				L1191.9,66.9z"/>
			<path class="st7" d="M1195.4,58.9l1.5,0l0,7.9l-1.5,0L1195.4,58.9z"/>
			<path class="st7" d="M1206.1,58.9l0,7.9l-1.2,0l-4.4-5.4l0,5.4l-1.5,0l0-7.9l1.2,0l4.4,5.4l0-5.4L1206.1,58.9z"/>
			<path class="st7" d="M1208.2,58.9l1.5,0l0,7.9l-1.5,0L1208.2,58.9z"/>
			<path class="st7" d="M1211.2,66l0.5-1.1c0.6,0.5,1.6,0.9,2.6,0.9c1.2,0,1.8-0.4,1.8-1c0-1.7-4.7-0.6-4.7-3.5c0-1.3,1-2.4,3.2-2.4
				c1,0,2,0.3,2.6,0.7l-0.5,1.1c-0.7-0.4-1.5-0.6-2.2-0.6c-1.2,0-1.7,0.5-1.7,1.1c0,1.7,4.7,0.6,4.7,3.5c0,1.3-1,2.4-3.2,2.4
				C1213.1,67,1211.8,66.6,1211.2,66z"/>
			<path class="st7" d="M1220.5,60.2l-2.6,0l0-1.2l6.7,0l0,1.2l-2.6,0l0,6.7l-1.5,0L1220.5,60.2z"/>
			<path class="st7" d="M1231.6,65.7l0,1.2l-6,0l0-7.9l5.8,0l0,1.2l-4.3,0l0,2.1l3.8,0l0,1.2l-3.8,0l0,2.2L1231.6,65.7z"/>
			<path class="st7" d="M1238.5,66.9l-1.6-2.3c-0.1,0-0.2,0-0.3,0l-1.8,0l0,2.3l-1.5,0l0-7.9l3.3,0c2.1,0,3.4,1.1,3.4,2.8
				c0,1.2-0.6,2.1-1.7,2.5l1.8,2.6L1238.5,66.9z M1236.5,60.2l-1.7,0l0,3.2l1.7,0c1.3,0,2-0.6,2-1.6
				C1238.4,60.8,1237.8,60.2,1236.5,60.2z"/>
			<path class="st7" d="M1241.6,59l1.5,0l0,7.9l-1.5,0L1241.6,59z"/>
			<path class="st7" d="M1244.6,62.9c0-2.3,1.8-4.1,4.3-4.1c2.5,0,4.3,1.7,4.3,4.1c0,2.4-1.8,4.1-4.3,4.1
				C1246.4,67,1244.6,65.3,1244.6,62.9z M1251.7,62.9c0-1.6-1.2-2.8-2.8-2.8c-1.6,0-2.8,1.2-2.8,2.8c0,1.6,1.2,2.8,2.8,2.8
				S1251.7,64.6,1251.7,62.9z"/>
			<path class="st7" d="M1257.9,59l3.5,0c2.6,0,4.3,1.6,4.3,4c0,2.4-1.8,4-4.3,4l-3.5,0L1257.9,59z M1261.3,65.7
				c1.8,0,2.9-1.1,2.9-2.7c0-1.6-1.1-2.7-2.9-2.7l-1.9,0l0,5.4L1261.3,65.7z"/>
			<path class="st7" d="M1273.2,65.7l0,1.2l-6,0l0-7.9l5.8,0l0,1.2l-4.3,0l0,2.1l3.8,0l0,1.2l-3.8,0l0,2.2L1273.2,65.7z"/>
			<path class="st7" d="M1183.9,79l0.5-1.1c0.6,0.5,1.6,0.9,2.6,0.9c1.2,0,1.8-0.4,1.8-1c0-1.7-4.7-0.6-4.7-3.5c0-1.3,1-2.4,3.2-2.4
				c1,0,2,0.3,2.6,0.7l-0.5,1.1c-0.7-0.4-1.5-0.6-2.2-0.6c-1.2,0-1.7,0.5-1.7,1.1c0,1.7,4.7,0.6,4.7,3.5c0,1.3-1,2.4-3.2,2.4
				C1185.8,79.9,1184.6,79.6,1183.9,79z"/>
			<path class="st7" d="M1196.8,78l-4,0l-0.8,1.8l-1.5,0l3.6-7.9l1.5,0l3.6,7.9l-1.5,0L1196.8,78z M1196.4,76.8l-1.5-3.5l-1.5,3.5
				L1196.4,76.8z"/>
			<path class="st7" d="M1200.2,71.9l1.5,0l0,6.7l4.2,0l0,1.2l-5.6,0L1200.2,71.9z"/>
			<path class="st7" d="M1206.8,76.4l0-4.5l1.5,0l0,4.4c0,1.6,0.7,2.3,2,2.3c1.3,0,2-0.7,2-2.3l0-4.4l1.5,0l0,4.5
				c0,2.3-1.3,3.6-3.5,3.6C1208.1,80,1206.8,78.7,1206.8,76.4z"/>
			<path class="st7" d="M1215.8,71.9l3.5,0c2.6,0,4.3,1.6,4.3,4c0,2.4-1.8,4-4.3,4l-3.5,0L1215.8,71.9z M1219.2,78.6
				c1.8,0,2.9-1.1,2.9-2.7c0-1.6-1.1-2.7-2.9-2.7l-1.9,0l0,5.4L1219.2,78.6z"/>
			<path class="st7" d="M1235,74.7c0,1.7-1.3,2.8-3.4,2.8l-1.8,0l0,2.3l-1.5,0l0-7.9l3.3,0C1233.7,71.9,1235,73,1235,74.7z
				 M1233.5,74.7c0-1-0.7-1.6-2-1.6l-1.7,0l0,3.2l1.7,0C1232.8,76.3,1233.5,75.7,1233.5,74.7z"/>
			<path class="st7" d="M1236.4,76.4l0-4.5l1.5,0l0,4.4c0,1.6,0.7,2.3,2,2.3c1.3,0,2-0.7,2-2.3l0-4.4l1.5,0l0,4.5
				c0,2.3-1.3,3.6-3.5,3.6C1237.7,80,1236.4,78.7,1236.4,76.4z M1240.5,69.7l1.7,0l-2,1.6l-1.2,0L1240.5,69.7z"/>
			<path class="st7" d="M1252.5,77.7c0,1.4-1.1,2.2-3.1,2.2l-3.9,0l0-7.9l3.7,0c1.9,0,2.9,0.8,2.9,2.1c0,0.8-0.4,1.4-1,1.7
				C1251.9,76,1252.5,76.7,1252.5,77.7z M1251,77.6c0-0.8-0.6-1.1-1.7-1.1l-2.4,0l0,2.3l2.4,0C1250.4,78.7,1251,78.4,1251,77.6z
				 M1246.9,73.1l0,2.2l2.1,0c1,0,1.6-0.4,1.6-1.1c0-0.7-0.6-1.1-1.6-1.1L1246.9,73.1z"/>
			<path class="st7" d="M1254,71.9l1.5,0l0,6.7l4.2,0l0,1.2l-5.6,0L1254,71.9z"/>
			<path class="st7" d="M1260.8,71.9l1.5,0l0,7.9l-1.5,0L1260.8,71.9z"/>
			<path class="st7" d="M1263.9,75.9c0-2.4,1.8-4.1,4.3-4.1c1.3,0,2.4,0.5,3.1,1.3l-1,0.9c-0.6-0.6-1.3-0.9-2.1-0.9
				c-1.6,0-2.8,1.2-2.8,2.8c0,1.6,1.2,2.8,2.8,2.8c0.8,0,1.5-0.3,2.1-0.9l1,0.9c-0.7,0.9-1.8,1.3-3.2,1.3
				C1265.7,80,1263.9,78.3,1263.9,75.9z"/>
			<path class="st7" d="M1277.7,78l-4,0l-0.8,1.8l-1.5,0l3.6-7.9l1.5,0l3.6,7.9l-1.5,0L1277.7,78z M1277.2,76.9l-1.5-3.5l-1.5,3.5
				L1277.2,76.9z"/>
			<path class="st7" d="M1188,90l0,2.8l-1.5,0l0-2.8l-3.1-5.2l1.6,0l2.3,3.9l2.4-3.9l1.5,0L1188,90z"/>
			<path class="st7" d="M1200.3,91l-4,0l-0.8,1.8l-1.5,0l3.6-7.9l1.5,0l3.6,7.9l-1.5,0L1200.3,91z M1199.8,89.8l-1.5-3.5l-1.5,3.5
				L1199.8,89.8z"/>
			<path class="st7" d="M1203,92l0.5-1.1c0.6,0.5,1.6,0.9,2.6,0.9c1.2,0,1.8-0.4,1.8-1c0-1.7-4.7-0.6-4.7-3.5c0-1.3,1-2.4,3.2-2.4
				c1,0,2,0.3,2.6,0.7l-0.5,1.1c-0.7-0.4-1.5-0.6-2.2-0.6c-1.2,0-1.7,0.5-1.7,1.1c0,1.7,4.7,0.6,4.7,3.5c0,1.3-1,2.4-3.2,2.4
				C1204.9,92.9,1203.7,92.5,1203,92z"/>
			<path class="st7" d="M1210.8,84.9l1.5,0l0,7.9l-1.5,0L1210.8,84.9z"/>
			<path class="st7" d="M1213.8,92l0.5-1.1c0.6,0.5,1.6,0.9,2.6,0.9c1.2,0,1.8-0.4,1.8-1c0-1.7-4.7-0.6-4.7-3.5c0-1.3,1-2.4,3.2-2.4
				c1,0,2,0.3,2.6,0.7l-0.5,1.1c-0.7-0.4-1.5-0.6-2.2-0.6c-1.2,0-1.7,0.5-1.7,1.1c0,1.7,4.7,0.6,4.7,3.5c0,1.3-1,2.4-3.2,2.4
				C1215.7,92.9,1214.4,92.5,1213.8,92z"/>
			<path class="st7" d="M1223.1,86.1l-2.6,0l0-1.2l6.7,0l0,1.2l-2.6,0l0,6.7l-1.5,0L1223.1,86.1z"/>
			<path class="st7" d="M1234.2,91.6l0,1.2l-6,0l0-7.9l5.8,0l0,1.2l-4.3,0l0,2.1l3.8,0l0,1.2l-3.8,0l0,2.2L1234.2,91.6z"/>
			<path class="st7" d="M1242.9,84.9l0,7.9l-1.2,0l-4.4-5.4l0,5.4l-1.5,0l0-7.9l1.2,0l4.4,5.4l0-5.4L1242.9,84.9z"/>
			<path class="st7" d="M1244.5,88.8c0-2.4,1.8-4.1,4.3-4.1c1.3,0,2.4,0.5,3.1,1.3l-1,0.9c-0.6-0.6-1.3-0.9-2.1-0.9
				c-1.6,0-2.8,1.2-2.8,2.8c0,1.6,1.2,2.8,2.8,2.8c0.8,0,1.5-0.3,2.1-0.9l1,0.9c-0.7,0.9-1.8,1.3-3.2,1.3
				C1246.3,92.9,1244.5,91.2,1244.5,88.8z"/>
			<path class="st7" d="M1253.3,84.9l1.5,0l0,7.9l-1.5,0L1253.3,84.9z"/>
			<path class="st7" d="M1262.1,91l-4,0l-0.8,1.8l-1.5,0l3.6-7.9l1.5,0l3.6,7.9l-1.5,0L1262.1,91z M1261.6,89.8l-1.5-3.5l-1.5,3.5
				L1261.6,89.8z"/>
			<path class="st7" d="M1183.9,104.9l0.5-1.1c0.6,0.5,1.6,0.9,2.6,0.9c1.2,0,1.8-0.4,1.8-1c0-1.7-4.7-0.6-4.7-3.5
				c0-1.3,1-2.4,3.2-2.4c1,0,2,0.3,2.6,0.7l-0.5,1.1c-0.7-0.4-1.5-0.6-2.2-0.6c-1.2,0-1.7,0.5-1.7,1.1c0,1.7,4.7,0.6,4.7,3.5
				c0,1.3-1,2.4-3.2,2.4C1185.8,105.9,1184.5,105.5,1183.9,104.9z"/>
			<path class="st7" d="M1191.1,101.8c0-2.3,1.8-4.1,4.3-4.1c2.5,0,4.3,1.7,4.3,4.1c0,2.4-1.8,4.1-4.3,4.1
				C1192.9,105.9,1191.1,104.1,1191.1,101.8z M1198.2,101.8c0-1.6-1.2-2.8-2.8-2.8s-2.8,1.2-2.8,2.8c0,1.6,1.2,2.8,2.8,2.8
				C1197,104.6,1198.2,103.4,1198.2,101.8z"/>
			<path class="st7" d="M1200.7,101.8c0-2.4,1.8-4.1,4.3-4.1c1.3,0,2.4,0.5,3.1,1.3l-1,0.9c-0.6-0.6-1.3-0.9-2.1-0.9
				c-1.6,0-2.8,1.2-2.8,2.8c0,1.6,1.2,2.8,2.8,2.8c0.8,0,1.5-0.3,2.1-0.9l1,0.9c-0.7,0.9-1.8,1.3-3.2,1.3
				C1202.5,105.9,1200.7,104.2,1200.7,101.8z"/>
			<path class="st7" d="M1209.5,97.8l1.5,0l0,7.9l-1.5,0L1209.5,97.8z"/>
			<path class="st7" d="M1218.2,103.9l-4,0l-0.8,1.8l-1.5,0l3.6-7.9l1.5,0l3.6,7.9l-1.5,0L1218.2,103.9z M1217.8,102.8l-1.5-3.5
				l-1.5,3.5L1217.8,102.8z"/>
			<path class="st7" d="M1221.6,97.8l1.5,0l0,6.7l4.2,0l0,1.2l-5.6,0L1221.6,97.8z"/>
		</g>
		<g id="XMLID_691_">
			<g id="XMLID_799_">
				<g id="XMLID_804_">
					<polygon id="XMLID_805_" class="st8" points="968.9,67.1 968.9,126.7 984.2,116.9 984.2,57.2 					"/>
				</g>
				<g id="XMLID_802_">
					<polyline id="XMLID_803_" class="st8" points="984.2,116.5 984.2,57 968.9,67.2 					"/>
				</g>
				<g id="XMLID_800_">
					<polygon id="XMLID_801_" class="st8" points="997,53.5 997,126.7 1015.6,114 1015.6,40.7 					"/>
				</g>
			</g>
			<g id="XMLID_692_">
				<g id="XMLID_748_">
					<g id="XMLID_771_">
						<path id="XMLID_797_" class="st9" d="M1038.3,69.1h2.1V74c-1.3,1-3.3,1.7-5,1.7c-3.8,0-6.7-2.9-6.7-6.6c0-3.7,3-6.5,6.9-6.5
							c1.8,0,3.7,0.7,5,1.8l-1.4,1.8c-1-0.9-2.3-1.5-3.6-1.5c-2.5,0-4.4,1.9-4.4,4.3c0,2.4,1.9,4.3,4.4,4.3c0.9,0,1.9-0.3,2.7-0.8
							V69.1z"/>
						<path id="XMLID_794_" class="st9" d="M1055.6,69.1c0,3.7-2.9,6.6-6.8,6.6c-3.8,0-6.8-2.9-6.8-6.6c0-3.7,2.9-6.5,6.8-6.5
							C1052.6,62.6,1055.6,65.4,1055.6,69.1z M1044.5,69.1c0,2.4,2,4.3,4.3,4.3c2.3,0,4.2-1.9,4.2-4.3c0-2.4-1.9-4.3-4.2-4.3
							C1046.5,64.8,1044.5,66.7,1044.5,69.1z"/>
						<path id="XMLID_790_" class="st9" d="M1067.6,65.9c0,1.4-0.8,2.5-2.2,2.9c1.7,0.3,2.7,1.5,2.7,3.3c0,2.2-1.8,3.6-4.7,3.6h-5.8
							V62.7h5.6C1065.9,62.7,1067.6,63.9,1067.6,65.9z M1065.1,66.3c0-1-0.8-1.5-2-1.5h-3.1v3.1h3.1
							C1064.3,67.9,1065.1,67.3,1065.1,66.3z M1065.5,71.7c0-1-0.9-1.7-2.5-1.7h-3.1v3.4h3.1C1064.6,73.4,1065.5,72.8,1065.5,71.7z"
							/>
						<path id="XMLID_788_" class="st9" d="M1072.7,62.7v12.9h-2.4V62.7H1072.7z"/>
						<path id="XMLID_786_" class="st9" d="M1084.9,62.7v2.2h-6.9V68h6.2v2.2h-6.2v3.2h7.1v2.2h-9.5V62.7H1084.9z"/>
						<path id="XMLID_783_" class="st9" d="M1095.4,75.6l-2.2-3.8c-0.1,0-0.3,0-0.5,0h-2.9v3.8h-2.4V62.7h5.3c3.3,0,5.2,1.6,5.2,4.4
							c0,2-0.9,3.5-2.5,4.2l2.8,4.3H1095.4z M1089.8,69.6h2.9c1.8,0,2.8-0.8,2.8-2.4c0-1.6-1-2.4-2.8-2.4h-2.9V69.6z"/>
						<path id="XMLID_781_" class="st9" d="M1102.7,62.7l6.6,8.8v-8.8h2.4v12.9h-2.3l-6.5-8.8v8.8h-2.4V62.7H1102.7z"/>
						<path id="XMLID_778_" class="st9" d="M1127,69.1c0,3.7-2.9,6.6-6.8,6.6c-3.8,0-6.8-2.9-6.8-6.6c0-3.7,2.9-6.5,6.8-6.5
							C1124.1,62.6,1127,65.4,1127,69.1z M1116,69.1c0,2.4,2,4.3,4.3,4.3c2.3,0,4.2-1.9,4.2-4.3c0-2.4-1.9-4.3-4.2-4.3
							C1118,64.8,1116,66.7,1116,69.1z"/>
						<path id="XMLID_775_" class="st9" d="M1139.2,74.2c-0.1,0.3-0.1,0.6-0.1,0.8c0,0.3,0.2,0.5,0.5,0.5c0.2,0,0.5-0.1,0.7-0.2
							c0.2-0.1,0.4-0.3,0.5-0.5c0.1-0.2,0.3-0.4,0.3-0.5c0.1-0.2,0.2-0.3,0.2-0.4l0.2,0.1c-0.1,0.1-0.2,0.3-0.3,0.5
							c-0.1,0.2-0.3,0.4-0.5,0.6c-0.2,0.2-0.4,0.4-0.7,0.5c-0.3,0.1-0.6,0.2-0.9,0.2c-0.8,0-1.2-0.4-1.2-1.1c0-0.1,0-0.2,0.1-0.5
							c0-0.2,0.1-0.4,0.1-0.6h0c-0.2,0.2-0.4,0.4-0.6,0.7c-0.2,0.3-0.5,0.5-0.7,0.7c-0.3,0.2-0.6,0.4-0.9,0.5
							c-0.3,0.1-0.7,0.2-1.1,0.2c-0.3,0-0.5,0-0.7-0.1c-0.2-0.1-0.4-0.2-0.6-0.4c-0.2-0.2-0.3-0.4-0.4-0.7c-0.1-0.3-0.2-0.6-0.2-1.1
							c0-0.5,0.1-1,0.3-1.5c0.2-0.5,0.4-1,0.8-1.4c0.3-0.4,0.7-0.9,1.1-1.2c0.4-0.4,0.8-0.7,1.2-1c0.4-0.3,0.8-0.5,1.2-0.7
							c0.4-0.2,0.8-0.2,1.1-0.2c0.4,0,0.7,0.1,0.9,0.3c0.3,0.2,0.4,0.5,0.4,0.8h0l2.4-6.7h-1.6l0.1-0.3h2.9l-4.1,11.7
							C1139.4,73.6,1139.3,73.9,1139.2,74.2z M1139.6,69.2c0-0.2,0.1-0.3,0.1-0.4c0-0.1,0-0.2,0-0.4c0-0.1-0.1-0.2-0.2-0.4
							c-0.1-0.1-0.2-0.2-0.3-0.3c-0.1-0.1-0.3-0.1-0.5-0.1c-0.4,0-0.8,0.1-1.2,0.3c-0.4,0.2-0.7,0.5-1.1,0.9
							c-0.3,0.4-0.6,0.8-0.9,1.3c-0.3,0.5-0.5,1-0.7,1.4c-0.2,0.5-0.4,1-0.5,1.4c-0.1,0.5-0.2,0.9-0.2,1.2c0,0.4,0.1,0.7,0.2,1
							c0.2,0.2,0.4,0.4,0.8,0.4c0.4,0,0.7-0.1,1.1-0.3c0.4-0.2,0.7-0.5,1-0.8c0.3-0.3,0.6-0.6,0.8-0.9c0.2-0.3,0.4-0.5,0.4-0.7
							l1-2.7C1139.5,69.7,1139.6,69.4,1139.6,69.2z"/>
						<path id="XMLID_772_" class="st9" d="M1146.9,74.2c-0.1,0.2-0.3,0.5-0.6,0.7c-0.3,0.2-0.6,0.4-0.9,0.6
							c-0.4,0.2-0.8,0.3-1.3,0.3c-0.5,0-1-0.1-1.3-0.3c-0.4-0.2-0.6-0.4-0.9-0.7c-0.2-0.3-0.4-0.6-0.5-0.9c-0.1-0.3-0.2-0.6-0.2-0.9
							c0-0.6,0.1-1.2,0.4-1.9c0.3-0.7,0.7-1.3,1.2-1.8c0.5-0.5,1-1,1.6-1.4c0.6-0.4,1.2-0.5,1.9-0.5c0.2,0,0.5,0,0.7,0.1
							c0.2,0.1,0.5,0.1,0.7,0.2c0.2,0.1,0.4,0.3,0.5,0.4c0.1,0.2,0.2,0.4,0.2,0.6c0,0.3-0.1,0.6-0.3,0.9c-0.2,0.3-0.4,0.5-0.7,0.6
							c-0.3,0.2-0.6,0.3-0.9,0.5c-0.3,0.1-0.7,0.2-1,0.3c-0.3,0.1-0.6,0.1-0.9,0.1c-0.3,0-0.5,0-0.6,0c-0.2,0-0.4,0-0.6,0
							c-0.2,0-0.4,0-0.5-0.1c-0.1,0.4-0.2,0.8-0.3,1.2c-0.1,0.4-0.1,0.8-0.1,1.2c0,0.7,0.2,1.2,0.5,1.5c0.3,0.3,0.8,0.5,1.3,0.5
							c0.4,0,0.7-0.1,1-0.2c0.3-0.2,0.6-0.3,0.8-0.5c0.2-0.2,0.4-0.4,0.6-0.6c0.2-0.2,0.3-0.4,0.4-0.5l0.2,0.1
							C1147.2,73.8,1147.1,74,1146.9,74.2z M1147,67.9c-0.1-0.2-0.4-0.3-0.7-0.3c-0.4,0-0.7,0.1-1.1,0.3c-0.3,0.2-0.7,0.5-0.9,0.8
							c-0.3,0.3-0.5,0.7-0.7,1.1c-0.2,0.4-0.4,0.7-0.5,1c0.3,0,0.6,0.1,0.9,0.1c0.4,0,0.8-0.1,1.2-0.2c0.4-0.1,0.7-0.3,1-0.5
							c0.3-0.2,0.5-0.5,0.7-0.8c0.2-0.3,0.3-0.6,0.3-0.9C1147.2,68.3,1147.1,68.1,1147,67.9z"/>
					</g>
					<g id="XMLID_749_">
						<path id="XMLID_769_" class="st9" d="M1037.6,85.9h3.7v5.9c-1.6,1.1-4.1,1.9-6.2,1.9c-4.5,0-7.8-3.2-7.8-7.5
							c0-4.3,3.4-7.5,8.1-7.5c2.2,0,4.6,0.9,6.1,2.2l-2.4,3c-1-1-2.4-1.6-3.7-1.6c-2.1,0-3.7,1.7-3.7,3.9c0,2.2,1.6,3.9,3.7,3.9
							c0.6,0,1.4-0.2,2.2-0.6V85.9z"/>
						<path id="XMLID_767_" class="st9" d="M1050.1,90.1c1.4,0,2.4-1,2.4-2.7v-8.5h4.3v8.5c0,3.9-2.6,6.4-6.8,6.4
							c-4.2,0-6.9-2.5-6.9-6.4v-8.5h4.3v8.5C1047.5,89,1048.6,90.1,1050.1,90.1z"/>
						<path id="XMLID_764_" class="st9" d="M1068.4,91.2h-5.9l-0.9,2.4h-4.4l6.2-14.7h4.4l6,14.7h-4.6L1068.4,91.2z M1067.2,88
							l-1.7-4.8l-1.8,4.8H1067.2z"/>
						<path id="XMLID_762_" class="st9" d="M1084.9,78.8v3.5h-4.2v11.2h-4.3V82.3h-4.2v-3.5H1084.9z"/>
						<path id="XMLID_760_" class="st9" d="M1098.1,78.8v3.4h-7.5v2.3h6.8v3.4h-6.8v2.3h7.8v3.4h-12.1V78.8H1098.1z"/>
						<path id="XMLID_758_" class="st9" d="M1105,78.8l3.5,8.1l3.5-8.1h4.6v14.7h-3.8l0-8.7l-2.9,7.3h-2.8l-2.9-7.3v8.7h-3.8V78.8
							H1105z"/>
						<path id="XMLID_755_" class="st9" d="M1128.8,91.2h-5.9l-0.9,2.4h-4.4l6.2-14.7h4.4l6,14.7h-4.6L1128.8,91.2z M1127.6,88
							l-1.7-4.8l-1.8,4.8H1127.6z"/>
						<path id="XMLID_753_" class="st9" d="M1139.6,78.8v11.1h6.1v3.7h-10.4V78.8H1139.6z"/>
						<path id="XMLID_750_" class="st9" d="M1156.9,91.2h-5.9l-0.9,2.4h-4.4l6.2-14.7h4.4l6,14.7h-4.6L1156.9,91.2z M1155.8,88
							l-1.7-4.8l-1.8,4.8H1155.8z"/>
					</g>
				</g>
				<g id="XMLID_693_">
					<g id="XMLID_694_">
						<path id="XMLID_745_" class="st10" d="M1033.3,100.2c0,1.2-0.9,1.9-2.3,1.9h-1.8v-3.9h1.8C1032.4,98.2,1033.3,99,1033.3,100.2
							z M1032.2,100.2c0-0.7-0.5-1.1-1.2-1.1h-0.7v2.2h0.8C1031.7,101.3,1032.2,100.8,1032.2,100.2z"/>
						<path id="XMLID_742_" class="st10" d="M1038.2,102.1l-0.6-1.1h0h-0.8v1.1h-1.1v-3.9h1.9c1.1,0,1.8,0.5,1.8,1.4
							c0,0.6-0.3,1-0.8,1.2l0.9,1.3H1038.2z M1036.8,100.2h0.8c0.4,0,0.7-0.2,0.7-0.6c0-0.4-0.3-0.6-0.7-0.6h-0.8V100.2z"/>
						<path id="XMLID_740_" class="st10" d="M1042.8,101.7c0,0.3-0.2,0.5-0.5,0.5s-0.5-0.2-0.5-0.5s0.2-0.5,0.5-0.5
							S1042.8,101.4,1042.8,101.7z"/>
						<path id="XMLID_737_" class="st10" d="M1051.7,101.4h-1.8l-0.3,0.7h-1.1l1.8-3.9h1.1l1.8,3.9h-1.2L1051.7,101.4z
							 M1051.4,100.6l-0.6-1.4l-0.6,1.4H1051.4z"/>
						<path id="XMLID_735_" class="st10" d="M1056.5,98.2v3h1.8v0.9h-2.9v-3.9H1056.5z"/>
						<path id="XMLID_733_" class="st10" d="M1064,98.2V99h-2.2v0.7h2v0.8l-2,0v0.7h2.3v0.8h-3.4v-3.9H1064z"/>
						<path id="XMLID_731_" class="st10" d="M1067.6,102.1c-0.6,0-1.1-0.2-1.5-0.6l0.5-0.7c0.3,0.3,0.6,0.4,0.9,0.4
							c0.3,0,0.4-0.2,0.4-0.4v-1.8h-1.5v-0.8h2.6v2.6C1069.1,101.7,1068.5,102.1,1067.6,102.1z"/>
						<path id="XMLID_728_" class="st10" d="M1074.3,101.4h-1.8l-0.3,0.7h-1.1l1.8-3.9h1.1l1.8,3.9h-1.2L1074.3,101.4z M1074,100.6
							l-0.6-1.4l-0.6,1.4H1074z"/>
						<path id="XMLID_726_" class="st10" d="M1079,98.2l1.9,2.3v-2.3h1v3.9h-1l-1.9-2.3v2.3h-1v-3.9H1079z"/>
						<path id="XMLID_723_" class="st10" d="M1088.7,100.2c0,1.2-0.9,1.9-2.3,1.9h-1.8v-3.9h1.8C1087.8,98.2,1088.7,99,1088.7,100.2
							z M1087.6,100.2c0-0.7-0.5-1.1-1.2-1.1h-0.7v2.2h0.8C1087.1,101.3,1087.6,100.8,1087.6,100.2z"/>
						<path id="XMLID_720_" class="st10" d="M1093.7,102.1l-0.6-1.1h0h-0.8v1.1h-1.1v-3.9h1.9c1.1,0,1.8,0.5,1.8,1.4
							c0,0.6-0.3,1-0.8,1.2l0.9,1.3H1093.7z M1092.2,100.2h0.8c0.4,0,0.7-0.2,0.7-0.6c0-0.4-0.3-0.6-0.7-0.6h-0.8V100.2z"/>
						<path id="XMLID_717_" class="st10" d="M1101.6,100.2c0,1.1-1,2-2.3,2c-1.3,0-2.3-0.8-2.3-2c0-1.1,1-2,2.3-2
							C1100.7,98.2,1101.6,99,1101.6,100.2z M1098.2,100.2c0,0.6,0.5,1.1,1.2,1.1c0.6,0,1.1-0.5,1.1-1.1c0-0.6-0.5-1.1-1.1-1.1
							C1098.7,99.1,1098.2,99.5,1098.2,100.2z"/>
						<path id="XMLID_715_" class="st10" d="M1110.5,100.1h1v1.5c-0.5,0.3-1.2,0.5-1.8,0.5c-1.3,0-2.3-0.8-2.3-2c0-1.1,1-2,2.4-2
							c0.6,0,1.3,0.2,1.7,0.6l-0.6,0.7c-0.3-0.3-0.7-0.4-1.1-0.4c-0.7,0-1.2,0.5-1.2,1.1c0,0.6,0.5,1.1,1.2,1.1
							c0.2,0,0.5-0.1,0.7-0.2V100.1z"/>
						<path id="XMLID_713_" class="st10" d="M1115.1,98.2v3.9h-1.1v-3.9H1115.1z"/>
						<path id="XMLID_710_" class="st10" d="M1120.6,101.4h-1.8l-0.3,0.7h-1.1l1.8-3.9h1.1l1.8,3.9h-1.2L1120.6,101.4z
							 M1120.3,100.6l-0.6-1.4l-0.6,1.4H1120.3z"/>
						<path id="XMLID_708_" class="st10" d="M1125.5,98.2l1.1,2.3l1.1-2.3h1.2v3.9h-1l0-2.4l-1,2.1h-0.7l-1-2.1v2.4h-1v-3.9H1125.5z
							"/>
						<path id="XMLID_706_" class="st10" d="M1132.8,98.2l1.1,2.3l1.1-2.3h1.2v3.9h-1l0-2.4l-1,2.1h-0.7l-1-2.1v2.4h-1v-3.9H1132.8z
							"/>
						<path id="XMLID_703_" class="st10" d="M1141.8,101.4h-1.8l-0.3,0.7h-1.1l1.8-3.9h1.1l1.8,3.9h-1.2L1141.8,101.4z
							 M1141.5,100.6l-0.6-1.4l-0.6,1.4H1141.5z"/>
						<path id="XMLID_701_" class="st10" d="M1148.3,98.2v0.8h-1.3v3h-1.1v-3h-1.3v-0.8H1148.3z"/>
						<path id="XMLID_699_" class="st10" d="M1153.8,98.2v0.8h-1.3v3h-1.1v-3h-1.3v-0.8H1153.8z"/>
						<path id="XMLID_697_" class="st10" d="M1159.5,98.2V99h-2.2v0.7h2v0.8l-2,0v0.7h2.3v0.8h-3.4v-3.9H1159.5z"/>
						<path id="XMLID_695_" class="st10" d="M1163.1,98.2v3.9h-1.1v-3.9H1163.1z"/>
					</g>
				</g>
			</g>
		</g>
	</g>
	<line class="st11" x1="922.8" y1="40.6" x2="922.8" y2="132.6"/>
</g>
<rect y="146" class="st1" width="1920" height="19"/>
</svg>
